<svg width="25" height="25" viewBox="0 0 25 25" fill="none" xmlns="http://www.w3.org/2000/svg">
<g id="Component 5">
<path id="Vector" d="M12.5003 9.375C11.6715 9.375 10.8767 9.70424 10.2906 10.2903C9.70457 10.8763 9.37533 11.6712 9.37533 12.5C9.37533 13.3288 9.70457 14.1237 10.2906 14.7097C10.8767 15.2958 11.6715 15.625 12.5003 15.625C13.3291 15.625 14.124 15.2958 14.71 14.7097C15.2961 14.1237 15.6253 13.3288 15.6253 12.5C15.6253 11.6712 15.2961 10.8763 14.71 10.2903C14.124 9.70424 13.3291 9.375 12.5003 9.375ZM12.5003 17.7083C11.119 17.7083 9.79423 17.1596 8.81748 16.1828C7.84073 15.2061 7.29199 13.8813 7.29199 12.5C7.29199 11.1187 7.84073 9.7939 8.81748 8.81715C9.79423 7.8404 11.119 7.29167 12.5003 7.29167C13.8817 7.29167 15.2064 7.8404 16.1832 8.81715C17.1599 9.7939 17.7087 11.1187 17.7087 12.5C17.7087 13.8813 17.1599 15.2061 16.1832 16.1828C15.2064 17.1596 13.8817 17.7083 12.5003 17.7083ZM12.5003 4.6875C7.29199 4.6875 2.84408 7.92708 1.04199 12.5C2.84408 17.0729 7.29199 20.3125 12.5003 20.3125C17.7087 20.3125 22.1566 17.0729 23.9587 12.5C22.1566 7.92708 17.7087 4.6875 12.5003 4.6875Z" fill="#929292"/>
</g>
</svg>
